<?xml version="1.0" encoding="UTF-8"?>
<svg version="1.1" xmlns="http://www.w3.org/2000/svg" width="256" height="256">
<path d="M0 0 C22.03852652 18.81159856 36.46579334 41.06373377 44.3515625 68.91015625 C44.69316406 70.08835937 45.03476563 71.2665625 45.38671875 72.48046875 C52.92056498 104.36791093 46.53869956 140.38566089 29.7109375 168.21484375 C19.22380228 184.89578124 5.20171214 199.62660904 -11.6484375 209.91015625 C-12.7209375 210.59335938 -13.7934375 211.2765625 -14.8984375 211.98046875 C-42.75922794 228.94201478 -78.25061189 233.92648545 -110.03027344 226.74707031 C-117.81941729 224.77736357 -125.2980262 222.14033195 -132.6484375 218.91015625 C-133.30263672 218.62688477 -133.95683594 218.34361328 -134.63085938 218.05175781 C-164.72593234 204.76588414 -188.43262339 179.18859339 -200.51953125 148.71386719 C-202.47890077 143.51521742 -204.1350825 138.25415274 -205.6484375 132.91015625 C-205.99003906 131.73195312 -206.33164063 130.55375 -206.68359375 129.33984375 C-214.21743998 97.45240157 -207.83557456 61.43465161 -191.0078125 33.60546875 C-172.71931393 4.51560818 -145.47270495 -14.79440926 -112.6484375 -24.08984375 C-111.47023438 -24.43144531 -110.29203125 -24.77304687 -109.078125 -25.125 C-71.91216204 -33.90596927 -29.43835184 -24.14652242 0 0 Z " fill="#3066BE" transform="translate(208.6484375,27.08984375)"/>
<path d="M0 0 C1.24784271 -0.00700928 2.49568542 -0.01401855 3.78134155 -0.02124023 C7.19284746 -0.03580225 10.60337956 -0.03242698 14.01483035 -0.01972389 C17.59234306 -0.00956807 21.1698153 -0.01899692 24.74732971 -0.02526855 C30.75529412 -0.03253844 36.76306161 -0.02297572 42.77099609 -0.00390625 C49.70574123 0.01785152 56.64001572 0.01081679 63.57474941 -0.01121187 C69.53930246 -0.02939668 75.50371427 -0.03190893 81.4682861 -0.0214572 C85.02598309 -0.01523781 88.5834593 -0.01434321 92.14114189 -0.02760315 C96.10990387 -0.04136279 100.078144 -0.02226156 104.046875 0 C105.8043531 -0.01214539 105.8043531 -0.01214539 107.59733582 -0.02453613 C114.1155299 0.04313891 118.44375655 0.3462046 123.58813477 4.51757812 C135.01848872 24.52069754 127.58813477 50.4789632 127.58813477 73.51757812 C78.08813477 73.51757812 28.58813477 73.51757812 -22.41186523 73.51757812 C-22.41186523 10.51757812 -22.41186523 10.51757812 -18.41186523 4.51757812 C-12.95379925 -0.65017057 -7.0972313 -0.04896217 0 0 Z " fill="#FEFEFE" transform="translate(75.411865234375,57.482421875)"/>
<path d="M0 0 C49.5 0 99 0 150 0 C148.86153846 5.69230769 148.86153846 5.69230769 146.25 8.6875 C145.51523437 9.55955078 145.51523437 9.55955078 144.765625 10.44921875 C141.15402348 13.62135549 137.34501593 14.25019575 132.65565491 14.26069641 C131.59726913 14.26778122 130.53888336 14.27486603 129.44842529 14.28216553 C128.29763489 14.27968811 127.14684448 14.27721069 125.96118164 14.2746582 C124.13111824 14.2823246 124.13111824 14.2823246 122.26408386 14.29014587 C118.92515858 14.30165299 115.58648179 14.3041173 112.24755406 14.30158257 C109.45683588 14.30051125 106.66614048 14.30540033 103.87542719 14.310188 C97.2900623 14.32127476 90.70475446 14.32172523 84.11938477 14.31567383 C77.33297813 14.30963345 70.54677878 14.32194844 63.76040751 14.3432439 C57.92670214 14.36087463 52.09306267 14.36685896 46.25933164 14.36360615 C42.77824383 14.36179554 39.29730392 14.36440716 35.81624031 14.37832069 C31.93348211 14.39325978 28.05098684 14.383916 24.16821289 14.37231445 C23.01944672 14.37995819 21.87068054 14.38760193 20.68710327 14.39547729 C14.22660887 14.35277499 9.43312238 13.98461471 4.35546875 9.5703125 C1.58134405 6.13744916 0.90214636 4.5107318 0 0 Z " fill="#FAFBFD" transform="translate(53,142)"/>
<path d="M0 0 C3.63 0 7.26 0 11 0 C12.72482199 4.54447779 14.43441757 9.09427383 16.12695312 13.65087891 C16.70685897 15.21124077 17.28887568 16.77081983 17.87304688 18.32958984 C18.71733588 20.59107825 19.54776194 22.85722669 20.375 25.125 C20.63748535 25.82230225 20.8999707 26.51960449 21.17041016 27.23803711 C22.63244603 31.29418158 23.38423629 34.69014966 23 39 C21.875 40.9375 21.875 40.9375 20 42 C17.0625 42.3125 17.0625 42.3125 14 41 C13.01049805 39.19189453 13.01049805 39.19189453 12.13671875 36.8203125 C11.62999634 35.46691772 11.62999634 35.46691772 11.11303711 34.08618164 C10.74573486 33.0677417 10.37843262 32.04930176 10 31 C9.58564697 29.87907959 9.17129395 28.75815918 8.74438477 27.60327148 C7.3945059 23.92941803 6.06969723 20.24729417 4.75 16.5625 C4.28650743 15.2844874 3.82296605 14.0064925 3.359375 12.72851562 C2.92625 11.52001953 2.493125 10.31152344 2.046875 9.06640625 C1.65338867 7.97271729 1.25990234 6.87902832 0.85449219 5.75219727 C0 3 0 3 0 0 Z " fill="#F7F9FC" transform="translate(158,166)"/>
<path d="M0 0 C3.63 0 7.26 0 11 0 C10.09708272 4.51458642 8.85146299 8.72891169 7.3828125 13.07421875 C7.12498993 13.83926224 6.86716736 14.60430573 6.60153198 15.39253235 C6.05697438 17.00262033 5.51056068 18.6120816 4.96240234 20.22094727 C4.12535549 22.68645292 3.30287838 25.15653279 2.48046875 27.62695312 C1.9488111 29.19301227 1.41628869 30.75877816 0.8828125 32.32421875 C0.51701584 33.4335804 0.51701584 33.4335804 0.14382935 34.56535339 C-1.65736992 39.77157994 -1.65736992 39.77157994 -5 42 C-8.125 41.75 -8.125 41.75 -11 41 C-13.19002689 36.61994621 -11.34369999 31.13484274 -9.9921875 26.67236328 C-8.70998541 22.95024753 -7.36937404 19.25309543 -6 15.5625 C-5.53036226 14.27180705 -5.06160552 12.98079317 -4.59375 11.68945312 C-1.22517123 2.45034247 -1.22517123 2.45034247 0 0 Z " fill="#F7F9FC" transform="translate(87,166)"/>
<path d="M0 0 C3.3 0 6.6 0 10 0 C10.07402793 5.51754805 10.12854366 11.03480856 10.16479492 16.55273438 C10.17990325 18.43071526 10.20039094 20.30866076 10.22631836 22.18652344 C10.26261246 24.88225019 10.27970545 27.57751146 10.29296875 30.2734375 C10.30845261 31.11619232 10.32393646 31.95894714 10.33988953 32.82723999 C10.34057617 35.19287109 10.34057617 35.19287109 10 39 C7 41 7 41 3.875 40.6875 C1 40 1 40 0 39 C-0.08865208 36.1156618 -0.11521296 33.25537842 -0.09765625 30.37109375 C-0.0962413 29.50686295 -0.09482635 28.64263214 -0.09336853 27.75221252 C-0.08775239 24.98060708 -0.07519719 22.2090812 -0.0625 19.4375 C-0.05748708 17.5631522 -0.05292381 15.68880315 -0.04882812 13.81445312 C-0.03777772 9.20960456 -0.0205023 4.60481579 0 0 Z " fill="#FDFEFE" transform="translate(123,167)"/>
</svg>
